<svg width="12" height="12" viewBox="0 0 12 12" fill="none" xmlns="http://www.w3.org/2000/svg">
<g clip-path="url(#clip0_5_883)">
<path d="M9.97214 3.67547C9.98511 3.6679 9.99587 3.65707 10.0034 3.64404C10.0108 3.63102 10.0148 3.61626 10.0148 3.60124C10.0148 3.58622 10.0108 3.57147 10.0034 3.55844C9.99587 3.54542 9.98511 3.53458 9.97214 3.52701L6.69062 1.62049C6.48065 1.49879 6.24226 1.43469 5.99957 1.43469C5.75688 1.43469 5.51849 1.49879 5.30853 1.62049L2.02765 3.52701C2.01467 3.53458 2.00391 3.54542 1.99643 3.55844C1.98895 3.57147 1.98502 3.58622 1.98502 3.60124C1.98502 3.61626 1.98895 3.63102 1.99643 3.64404C2.00391 3.65707 2.01467 3.6679 2.02765 3.67547L5.95671 5.98676C5.96993 5.99455 5.98498 5.99865 6.00032 5.99865C6.01566 5.99865 6.03072 5.99455 6.04394 5.98676L9.97214 3.67547Z" fill="white"/>
<path d="M1.65984 4.25977C1.64673 4.25221 1.63186 4.24824 1.61673 4.24826C1.6016 4.24828 1.58674 4.2523 1.57366 4.25991C1.56058 4.26752 1.54974 4.27845 1.54224 4.29159C1.53473 4.30473 1.53083 4.31962 1.53093 4.33476V8.07067C1.53126 8.25071 1.57871 8.42752 1.66856 8.58352C1.75842 8.73953 1.88755 8.86929 2.04312 8.95991L5.52702 11.0488C5.54008 11.0564 5.55489 11.0603 5.56997 11.0603C5.58505 11.0604 5.59986 11.0564 5.61292 11.0489C5.62599 11.0413 5.63684 11.0305 5.64438 11.0174C5.65193 11.0044 5.65592 10.9896 5.65593 10.9745V6.64003C5.65592 6.62496 5.65194 6.61016 5.6444 6.59711C5.63685 6.58406 5.62601 6.57323 5.61296 6.56569L1.65984 4.25977Z" fill="white"/>
<path d="M6.34337 6.65509V10.9735C6.34338 10.9885 6.34737 11.0033 6.35492 11.0164C6.36246 11.0294 6.37331 11.0403 6.38638 11.0478C6.39944 11.0553 6.41425 11.0593 6.42933 11.0593C6.44441 11.0593 6.45922 11.0553 6.47227 11.0478L9.95597 8.95886C10.1114 8.86836 10.2405 8.73878 10.3304 8.58298C10.4203 8.42717 10.4678 8.25057 10.4684 8.0707V4.33478C10.4683 4.31972 10.4643 4.30494 10.4567 4.29192C10.4492 4.2789 10.4383 4.26809 10.4253 4.26058C10.4122 4.25308 10.3974 4.24913 10.3824 4.24915C10.3673 4.24916 10.3525 4.25313 10.3395 4.26066L6.38634 6.58097C6.37332 6.58849 6.3625 6.59929 6.35496 6.6123C6.34742 6.6253 6.34342 6.64006 6.34337 6.65509V6.65509Z" fill="white"/>
</g>
<defs>
<clipPath id="clip0_5_883">
<rect width="11" height="11" fill="white" transform="translate(0.499603 0.74765)"/>
</clipPath>
</defs>
</svg>
