<svg width="884" height="297" viewBox="0 0 884 297" fill="none" xmlns="http://www.w3.org/2000/svg">
<path d="M867.721 287.053V291.75H869.108C869.818 291.75 870.313 291.4 870.593 290.7C870.746 290.316 870.822 289.859 870.822 289.328C870.822 288.596 870.706 288.034 870.475 287.644C870.247 287.25 869.792 287.053 869.108 287.053H867.721ZM869.362 285.803C869.808 285.809 870.179 285.861 870.475 285.959C870.98 286.125 871.388 286.429 871.701 286.872C871.952 287.23 872.122 287.618 872.214 288.034C872.305 288.451 872.35 288.848 872.35 289.226C872.35 290.183 872.158 290.993 871.774 291.657C871.253 292.552 870.449 293 869.362 293H866.261V285.803H869.362ZM875.475 288.684C875.153 288.684 874.902 288.785 874.723 288.986C874.548 289.188 874.437 289.462 874.391 289.807H876.554C876.532 289.439 876.419 289.16 876.218 288.972C876.019 288.78 875.772 288.684 875.475 288.684ZM875.475 287.536C875.918 287.536 876.317 287.619 876.672 287.785C877.026 287.951 877.319 288.213 877.551 288.571C877.759 288.887 877.894 289.253 877.956 289.67C877.992 289.914 878.006 290.266 878 290.725H874.357C874.377 291.258 874.544 291.633 874.86 291.848C875.052 291.981 875.283 292.048 875.553 292.048C875.84 292.048 876.073 291.966 876.252 291.804C876.349 291.716 876.436 291.594 876.51 291.438H877.931C877.896 291.753 877.731 292.074 877.438 292.399C876.983 292.917 876.344 293.176 875.524 293.176C874.847 293.176 874.25 292.958 873.732 292.521C873.215 292.085 872.956 291.376 872.956 290.393C872.956 289.471 873.189 288.765 873.654 288.273C874.123 287.782 874.73 287.536 875.475 287.536ZM882.121 289.587C882.095 289.388 882.028 289.209 881.921 289.05C881.764 288.835 881.522 288.728 881.193 288.728C880.724 288.728 880.404 288.96 880.231 289.426C880.14 289.673 880.094 290.002 880.094 290.412C880.094 290.803 880.14 291.117 880.231 291.354C880.397 291.797 880.71 292.019 881.169 292.019C881.494 292.019 881.725 291.931 881.862 291.755C881.999 291.579 882.082 291.351 882.111 291.071H883.532C883.499 291.494 883.346 291.895 883.073 292.272C882.637 292.881 881.991 293.186 881.135 293.186C880.278 293.186 879.649 292.932 879.245 292.424C878.841 291.916 878.639 291.257 878.639 290.446C878.639 289.532 878.862 288.82 879.308 288.312C879.754 287.805 880.37 287.551 881.154 287.551C881.821 287.551 882.367 287.701 882.79 288C883.216 288.299 883.469 288.828 883.547 289.587H882.121Z" fill="#CBD5E0"/>
<path d="M790.237 285.803H791.814L794.68 290.827V285.803H796.082V293H794.578L791.638 287.888V293H790.237V285.803ZM799.763 292.019C800.17 292.019 800.483 291.874 800.701 291.584C800.919 291.294 801.028 290.882 801.028 290.349C801.028 289.815 800.919 289.405 800.701 289.118C800.483 288.828 800.17 288.684 799.763 288.684C799.357 288.684 799.042 288.828 798.821 289.118C798.603 289.405 798.494 289.815 798.494 290.349C798.494 290.882 798.603 291.294 798.821 291.584C799.042 291.874 799.357 292.019 799.763 292.019ZM802.488 290.349C802.488 291.13 802.263 291.799 801.814 292.355C801.365 292.909 800.683 293.186 799.768 293.186C798.854 293.186 798.172 292.909 797.722 292.355C797.273 291.799 797.049 291.13 797.049 290.349C797.049 289.58 797.273 288.915 797.722 288.352C798.172 287.788 798.854 287.507 799.768 287.507C800.683 287.507 801.365 287.788 801.814 288.352C802.263 288.915 802.488 289.58 802.488 290.349ZM806.77 287.678H808.264L806.345 293H804.876L802.967 287.678H804.529L805.637 291.604L806.77 287.678Z" fill="#CBD5E0"/>
<path d="M719.445 291.926C720.041 291.926 720.513 291.706 720.861 291.267C721.213 290.827 721.388 290.202 721.388 289.392C721.388 288.584 721.213 287.961 720.861 287.521C720.513 287.079 720.041 286.857 719.445 286.857C718.849 286.857 718.374 287.077 718.019 287.517C717.664 287.956 717.487 288.581 717.487 289.392C717.487 290.202 717.664 290.827 718.019 291.267C718.374 291.706 718.849 291.926 719.445 291.926ZM722.892 289.392C722.892 290.684 722.529 291.674 721.803 292.36C721.26 292.92 720.474 293.2 719.445 293.2C718.416 293.2 717.63 292.92 717.087 292.36C716.358 291.674 715.993 290.684 715.993 289.392C715.993 288.073 716.358 287.084 717.087 286.423C717.63 285.863 718.416 285.583 719.445 285.583C720.474 285.583 721.26 285.863 721.803 286.423C722.529 287.084 722.892 288.073 722.892 289.392ZM727.111 289.587C727.085 289.388 727.018 289.209 726.911 289.05C726.755 288.835 726.512 288.728 726.183 288.728C725.715 288.728 725.394 288.96 725.221 289.426C725.13 289.673 725.085 290.002 725.085 290.412C725.085 290.803 725.13 291.117 725.221 291.354C725.387 291.797 725.7 292.019 726.159 292.019C726.484 292.019 726.716 291.931 726.852 291.755C726.989 291.579 727.072 291.351 727.101 291.071H728.522C728.49 291.494 728.337 291.895 728.063 292.272C727.627 292.881 726.981 293.186 726.125 293.186C725.269 293.186 724.639 292.932 724.235 292.424C723.831 291.916 723.63 291.257 723.63 290.446C723.63 289.532 723.853 288.82 724.299 288.312C724.745 287.805 725.36 287.551 726.144 287.551C726.812 287.551 727.357 287.701 727.78 288C728.206 288.299 728.459 288.828 728.537 289.587H727.111ZM728.952 288.718V287.727H729.694V286.242H731.071V287.727H731.935V288.718H731.071V291.53C731.071 291.748 731.099 291.885 731.154 291.94C731.209 291.993 731.379 292.019 731.662 292.019C731.704 292.019 731.748 292.019 731.794 292.019C731.843 292.015 731.89 292.012 731.935 292.009V293.049L731.276 293.073C730.619 293.096 730.169 292.982 729.928 292.731C729.772 292.572 729.694 292.326 729.694 291.994V288.718H728.952Z" fill="#CBD5E0"/>
<path d="M641.85 290.778C641.896 291.107 641.985 291.353 642.119 291.516C642.363 291.812 642.781 291.96 643.374 291.96C643.729 291.96 644.017 291.921 644.238 291.843C644.658 291.693 644.868 291.415 644.868 291.008C644.868 290.77 644.764 290.586 644.555 290.456C644.347 290.329 644.02 290.217 643.574 290.119L642.812 289.948C642.064 289.779 641.546 289.595 641.26 289.396C640.774 289.064 640.532 288.545 640.532 287.839C640.532 287.194 640.766 286.659 641.235 286.232C641.704 285.806 642.392 285.593 643.301 285.593C644.059 285.593 644.705 285.795 645.239 286.198C645.776 286.599 646.058 287.181 646.084 287.946H644.638C644.612 287.513 644.424 287.206 644.072 287.023C643.838 286.903 643.546 286.843 643.198 286.843C642.811 286.843 642.501 286.921 642.27 287.077C642.039 287.233 641.924 287.451 641.924 287.731C641.924 287.989 642.038 288.181 642.265 288.308C642.412 288.392 642.724 288.492 643.203 288.605L644.443 288.903C644.987 289.034 645.397 289.208 645.674 289.426C646.103 289.764 646.318 290.254 646.318 290.896C646.318 291.553 646.066 292.1 645.561 292.536C645.06 292.969 644.35 293.186 643.432 293.186C642.495 293.186 641.758 292.972 641.22 292.546C640.683 292.116 640.415 291.527 640.415 290.778H641.85ZM649.419 288.684C649.096 288.684 648.846 288.785 648.667 288.986C648.491 289.188 648.38 289.462 648.335 289.807H650.498C650.475 289.439 650.363 289.16 650.161 288.972C649.962 288.78 649.715 288.684 649.419 288.684ZM649.419 287.536C649.861 287.536 650.26 287.619 650.615 287.785C650.97 287.951 651.263 288.213 651.494 288.571C651.702 288.887 651.837 289.253 651.899 289.67C651.935 289.914 651.95 290.266 651.943 290.725H648.301C648.32 291.258 648.488 291.633 648.803 291.848C648.996 291.981 649.227 292.048 649.497 292.048C649.783 292.048 650.016 291.966 650.195 291.804C650.293 291.716 650.379 291.594 650.454 291.438H651.875C651.839 291.753 651.675 292.074 651.382 292.399C650.926 292.917 650.288 293.176 649.468 293.176C648.79 293.176 648.193 292.958 647.676 292.521C647.158 292.085 646.899 291.376 646.899 290.393C646.899 289.471 647.132 288.765 647.597 288.273C648.066 287.782 648.673 287.536 649.419 287.536ZM656.552 290.339C656.552 289.929 656.458 289.566 656.269 289.25C656.084 288.934 655.781 288.776 655.361 288.776C654.857 288.776 654.51 289.016 654.321 289.494C654.223 289.748 654.175 290.07 654.175 290.461C654.175 291.079 654.339 291.514 654.668 291.765C654.863 291.911 655.094 291.984 655.361 291.984C655.748 291.984 656.043 291.835 656.245 291.535C656.45 291.236 656.552 290.837 656.552 290.339ZM655.761 287.561C656.383 287.561 656.909 287.79 657.339 288.249C657.772 288.708 657.988 289.382 657.988 290.271C657.988 291.208 657.776 291.923 657.353 292.414C656.933 292.906 656.391 293.151 655.727 293.151C655.304 293.151 654.953 293.046 654.673 292.834C654.52 292.717 654.37 292.546 654.223 292.321V295.095H652.846V287.678H654.179V288.464C654.329 288.233 654.489 288.05 654.658 287.917C654.967 287.679 655.335 287.561 655.761 287.561Z" fill="#CBD5E0"/>
<path d="M566.229 290.28H568.055L567.157 287.448L566.229 290.28ZM566.322 285.803H568.021L570.57 293H568.939L568.475 291.521H565.824L565.326 293H563.754L566.322 285.803ZM572.762 287.678V290.886C572.762 291.188 572.798 291.416 572.87 291.569C572.997 291.84 573.246 291.975 573.617 291.975C574.092 291.975 574.418 291.783 574.594 291.398C574.685 291.19 574.73 290.915 574.73 290.573V287.678H576.141V293H574.789V292.248C574.776 292.264 574.743 292.313 574.691 292.395C574.639 292.476 574.577 292.548 574.506 292.609C574.288 292.805 574.076 292.938 573.871 293.01C573.669 293.081 573.431 293.117 573.158 293.117C572.37 293.117 571.84 292.834 571.566 292.268C571.413 291.955 571.337 291.494 571.337 290.886V287.678H572.762ZM579.774 291.857C580.1 291.857 580.375 291.735 580.599 291.491C580.824 291.244 580.936 290.852 580.936 290.314C580.936 289.81 580.829 289.426 580.614 289.162C580.402 288.898 580.118 288.767 579.76 288.767C579.271 288.767 578.934 288.996 578.749 289.455C578.651 289.699 578.602 290 578.602 290.358C578.602 290.668 578.654 290.943 578.759 291.184C578.947 291.633 579.286 291.857 579.774 291.857ZM579.427 287.551C579.694 287.551 579.927 287.591 580.126 287.673C580.464 287.813 580.738 288.07 580.946 288.444V287.678H582.299V292.727C582.299 293.413 582.183 293.931 581.952 294.279C581.555 294.878 580.793 295.178 579.667 295.178C578.986 295.178 578.431 295.044 578.002 294.777C577.572 294.51 577.334 294.112 577.289 293.581H578.802C578.842 293.744 578.905 293.861 578.993 293.933C579.143 294.06 579.395 294.123 579.75 294.123C580.251 294.123 580.586 293.955 580.756 293.62C580.866 293.405 580.922 293.044 580.922 292.536V292.194C580.788 292.422 580.645 292.593 580.492 292.707C580.215 292.919 579.856 293.024 579.413 293.024C578.729 293.024 578.182 292.785 577.772 292.307C577.365 291.825 577.162 291.174 577.162 290.354C577.162 289.562 577.359 288.898 577.753 288.361C578.147 287.821 578.705 287.551 579.427 287.551Z" fill="#CBD5E0"/>
<path d="M493.64 290.271V290.437C493.653 290.993 493.714 291.385 493.821 291.613C493.932 291.838 494.166 291.95 494.524 291.95C494.879 291.95 495.113 291.826 495.227 291.579C495.296 291.433 495.33 291.185 495.33 290.837V285.803H496.834V290.812C496.834 291.424 496.728 291.91 496.516 292.268C496.158 292.873 495.512 293.176 494.578 293.176C493.644 293.176 493.017 292.932 492.698 292.443C492.379 291.952 492.219 291.283 492.219 290.437V290.271H493.64ZM499.602 287.678V290.886C499.602 291.188 499.638 291.416 499.71 291.569C499.837 291.84 500.086 291.975 500.457 291.975C500.932 291.975 501.258 291.783 501.433 291.398C501.524 291.19 501.57 290.915 501.57 290.573V287.678H502.981V293H501.629V292.248C501.616 292.264 501.583 292.313 501.531 292.395C501.479 292.476 501.417 292.548 501.345 292.609C501.127 292.805 500.916 292.938 500.711 293.01C500.509 293.081 500.271 293.117 499.998 293.117C499.21 293.117 498.679 292.834 498.406 292.268C498.253 291.955 498.177 291.494 498.177 290.886V287.678H499.602ZM505.75 293H504.358V285.803H505.75V293Z" fill="#CBD5E0"/>
<path d="M418.64 290.271V290.437C418.653 290.993 418.714 291.385 418.821 291.613C418.932 291.838 419.166 291.95 419.524 291.95C419.879 291.95 420.113 291.826 420.227 291.579C420.296 291.433 420.33 291.185 420.33 290.837V285.803H421.834V290.812C421.834 291.424 421.728 291.91 421.516 292.268C421.158 292.873 420.512 293.176 419.578 293.176C418.644 293.176 418.017 292.932 417.698 292.443C417.379 291.952 417.219 291.283 417.219 290.437V290.271H418.64ZM424.602 287.678V290.886C424.602 291.188 424.638 291.416 424.71 291.569C424.837 291.84 425.086 291.975 425.457 291.975C425.932 291.975 426.258 291.783 426.433 291.398C426.524 291.19 426.57 290.915 426.57 290.573V287.678H427.981V293H426.629V292.248C426.616 292.264 426.583 292.313 426.531 292.395C426.479 292.476 426.417 292.548 426.345 292.609C426.127 292.805 425.916 292.938 425.711 293.01C425.509 293.081 425.271 293.117 424.998 293.117C424.21 293.117 423.679 292.834 423.406 292.268C423.253 291.955 423.177 291.494 423.177 290.886V287.678H424.602ZM432.278 287.551C432.828 287.551 433.277 287.696 433.626 287.985C433.977 288.272 434.153 288.749 434.153 289.416V293H432.727V289.763C432.727 289.483 432.69 289.268 432.615 289.118C432.478 288.845 432.218 288.708 431.834 288.708C431.362 288.708 431.038 288.908 430.862 289.309C430.771 289.52 430.725 289.79 430.725 290.119V293H429.339V287.688H430.681V288.464C430.86 288.19 431.03 287.993 431.189 287.873C431.476 287.658 431.839 287.551 432.278 287.551Z" fill="#CBD5E0"/>
<path d="M346.032 285.803H348.195V293H346.794V288.132C346.794 287.992 346.795 287.797 346.799 287.546C346.802 287.292 346.803 287.097 346.803 286.96L345.441 293H343.981L342.629 286.96C342.629 287.097 342.63 287.292 342.634 287.546C342.637 287.797 342.638 287.992 342.638 288.132V293H341.237V285.803H343.425L344.733 291.462L346.032 285.803ZM352.414 290.412C352.326 290.467 352.236 290.513 352.145 290.549C352.057 290.581 351.935 290.612 351.779 290.642L351.467 290.7C351.174 290.752 350.964 290.816 350.837 290.891C350.622 291.018 350.514 291.215 350.514 291.481C350.514 291.719 350.58 291.892 350.71 291.999C350.843 292.103 351.004 292.155 351.193 292.155C351.493 292.155 351.768 292.067 352.018 291.892C352.272 291.716 352.404 291.395 352.414 290.93V290.412ZM351.569 289.763C351.826 289.73 352.01 289.689 352.121 289.641C352.319 289.556 352.419 289.424 352.419 289.245C352.419 289.027 352.342 288.877 352.189 288.796C352.039 288.711 351.818 288.669 351.525 288.669C351.196 288.669 350.964 288.75 350.827 288.913C350.729 289.034 350.664 289.196 350.632 289.401H349.289C349.318 288.936 349.448 288.553 349.679 288.254C350.047 287.785 350.679 287.551 351.574 287.551C352.157 287.551 352.674 287.666 353.127 287.897C353.579 288.129 353.805 288.565 353.805 289.206V291.647C353.805 291.817 353.809 292.022 353.815 292.263C353.825 292.445 353.853 292.569 353.898 292.634C353.944 292.699 354.012 292.753 354.103 292.795V293H352.59C352.547 292.893 352.518 292.792 352.502 292.697C352.485 292.603 352.472 292.495 352.463 292.375C352.271 292.583 352.049 292.761 351.799 292.907C351.499 293.08 351.161 293.166 350.783 293.166C350.301 293.166 349.902 293.029 349.587 292.756C349.274 292.479 349.118 292.089 349.118 291.584C349.118 290.93 349.37 290.456 349.875 290.163C350.151 290.004 350.558 289.89 351.095 289.821L351.569 289.763ZM355.26 294.021L355.436 294.03C355.573 294.037 355.703 294.032 355.827 294.016C355.951 293.999 356.055 293.962 356.139 293.903C356.221 293.848 356.296 293.732 356.364 293.557C356.436 293.381 356.465 293.273 356.452 293.234L354.499 287.678H356.047L357.209 291.604L358.307 287.678H359.787L357.961 292.912C357.609 293.921 357.331 294.546 357.126 294.787C356.921 295.031 356.51 295.153 355.895 295.153C355.772 295.153 355.672 295.152 355.597 295.148C355.523 295.148 355.41 295.144 355.26 295.134V294.021Z" fill="#CBD5E0"/>
<path d="M268.729 290.28H270.555L269.657 287.448L268.729 290.28ZM268.822 285.803H270.521L273.07 293H271.439L270.975 291.521H268.324L267.826 293H266.254L268.822 285.803ZM277.543 290.339C277.543 289.929 277.448 289.566 277.26 289.25C277.074 288.934 276.771 288.776 276.351 288.776C275.847 288.776 275.5 289.016 275.311 289.494C275.214 289.748 275.165 290.07 275.165 290.461C275.165 291.079 275.329 291.514 275.658 291.765C275.853 291.911 276.084 291.984 276.351 291.984C276.739 291.984 277.033 291.835 277.235 291.535C277.44 291.236 277.543 290.837 277.543 290.339ZM276.752 287.561C277.373 287.561 277.899 287.79 278.329 288.249C278.762 288.708 278.978 289.382 278.978 290.271C278.978 291.208 278.767 291.923 278.344 292.414C277.924 292.906 277.382 293.151 276.718 293.151C276.294 293.151 275.943 293.046 275.663 292.834C275.51 292.717 275.36 292.546 275.214 292.321V295.095H273.837V287.678H275.17V288.464C275.319 288.233 275.479 288.05 275.648 287.917C275.957 287.679 276.325 287.561 276.752 287.561ZM282.88 287.551C282.906 287.551 282.927 287.552 282.943 287.556C282.963 287.556 283.003 287.557 283.065 287.561V288.986C282.977 288.977 282.899 288.97 282.831 288.967C282.762 288.964 282.707 288.962 282.665 288.962C282.105 288.962 281.729 289.144 281.537 289.509C281.429 289.714 281.376 290.03 281.376 290.456V293H279.974V287.678H281.302V288.605C281.517 288.251 281.705 288.008 281.864 287.878C282.124 287.66 282.463 287.551 282.88 287.551Z" fill="#CBD5E0"/>
<path d="M196.532 285.803H198.695V293H197.294V288.132C197.294 287.992 197.295 287.797 197.299 287.546C197.302 287.292 197.303 287.097 197.303 286.96L195.941 293H194.481L193.129 286.96C193.129 287.097 193.13 287.292 193.134 287.546C193.137 287.797 193.138 287.992 193.138 288.132V293H191.737V285.803H193.925L195.233 291.462L196.532 285.803ZM202.914 290.412C202.826 290.467 202.736 290.513 202.645 290.549C202.557 290.581 202.435 290.612 202.279 290.642L201.967 290.7C201.674 290.752 201.464 290.816 201.337 290.891C201.122 291.018 201.014 291.215 201.014 291.481C201.014 291.719 201.08 291.892 201.21 291.999C201.343 292.103 201.504 292.155 201.693 292.155C201.993 292.155 202.268 292.067 202.518 291.892C202.772 291.716 202.904 291.395 202.914 290.93V290.412ZM202.069 289.763C202.326 289.73 202.51 289.689 202.621 289.641C202.819 289.556 202.919 289.424 202.919 289.245C202.919 289.027 202.842 288.877 202.689 288.796C202.539 288.711 202.318 288.669 202.025 288.669C201.696 288.669 201.464 288.75 201.327 288.913C201.229 289.034 201.164 289.196 201.132 289.401H199.789C199.818 288.936 199.948 288.553 200.179 288.254C200.547 287.785 201.179 287.551 202.074 287.551C202.657 287.551 203.174 287.666 203.627 287.897C204.079 288.129 204.305 288.565 204.305 289.206V291.647C204.305 291.817 204.309 292.022 204.315 292.263C204.325 292.445 204.353 292.569 204.398 292.634C204.444 292.699 204.512 292.753 204.603 292.795V293H203.09C203.047 292.893 203.018 292.792 203.002 292.697C202.985 292.603 202.972 292.495 202.963 292.375C202.771 292.583 202.549 292.761 202.299 292.907C201.999 293.08 201.661 293.166 201.283 293.166C200.801 293.166 200.402 293.029 200.087 292.756C199.774 292.479 199.618 292.089 199.618 291.584C199.618 290.93 199.87 290.456 200.375 290.163C200.651 290.004 201.058 289.89 201.595 289.821L202.069 289.763ZM208.436 287.551C208.462 287.551 208.483 287.552 208.5 287.556C208.519 287.556 208.56 287.557 208.622 287.561V288.986C208.534 288.977 208.456 288.97 208.387 288.967C208.319 288.964 208.264 288.962 208.221 288.962C207.662 288.962 207.286 289.144 207.094 289.509C206.986 289.714 206.932 290.03 206.932 290.456V293H205.531V287.678H206.859V288.605C207.074 288.251 207.261 288.008 207.421 287.878C207.681 287.66 208.02 287.551 208.436 287.551Z" fill="#CBD5E0"/>
<path d="M116.761 285.812H121.864V287.077H118.256V288.732H121.415V289.982H118.256V293H116.761V285.812ZM124.862 288.684C124.54 288.684 124.289 288.785 124.11 288.986C123.934 289.188 123.824 289.462 123.778 289.807H125.941C125.918 289.439 125.806 289.16 125.604 288.972C125.406 288.78 125.158 288.684 124.862 288.684ZM124.862 287.536C125.305 287.536 125.704 287.619 126.058 287.785C126.413 287.951 126.706 288.213 126.937 288.571C127.146 288.887 127.281 289.253 127.343 289.67C127.378 289.914 127.393 290.266 127.386 290.725H123.744C123.763 291.258 123.931 291.633 124.247 291.848C124.439 291.981 124.67 292.048 124.94 292.048C125.227 292.048 125.459 291.966 125.638 291.804C125.736 291.716 125.822 291.594 125.897 291.438H127.318C127.282 291.753 127.118 292.074 126.825 292.399C126.369 292.917 125.731 293.176 124.911 293.176C124.234 293.176 123.636 292.958 123.119 292.521C122.601 292.085 122.343 291.376 122.343 290.393C122.343 289.471 122.575 288.765 123.041 288.273C123.51 287.782 124.117 287.536 124.862 287.536ZM131.205 287.561C131.905 287.561 132.452 287.813 132.845 288.317C133.243 288.822 133.441 289.473 133.441 290.271C133.441 291.097 133.246 291.783 132.855 292.326C132.465 292.87 131.919 293.142 131.219 293.142C130.78 293.142 130.427 293.054 130.16 292.878C130 292.774 129.828 292.591 129.642 292.331V293H128.28V285.812H129.667V288.371C129.843 288.124 130.036 287.935 130.248 287.805C130.498 287.642 130.817 287.561 131.205 287.561ZM130.848 291.994C131.206 291.994 131.485 291.849 131.683 291.56C131.882 291.27 131.981 290.889 131.981 290.417C131.981 290.039 131.932 289.727 131.835 289.479C131.649 289.011 131.307 288.776 130.809 288.776C130.305 288.776 129.958 289.006 129.769 289.465C129.672 289.709 129.623 290.025 129.623 290.412C129.623 290.868 129.724 291.245 129.926 291.545C130.127 291.844 130.435 291.994 130.848 291.994Z" fill="#CBD5E0"/>
<path d="M43.1404 290.271V290.437C43.1534 290.993 43.2136 291.385 43.321 291.613C43.4317 291.838 43.6661 291.95 44.0242 291.95C44.379 291.95 44.6134 291.826 44.7273 291.579C44.7957 291.433 44.8298 291.185 44.8298 290.837V285.803H46.3337V290.812C46.3337 291.424 46.2279 291.91 46.0164 292.268C45.6583 292.873 45.0121 293.176 44.0779 293.176C43.1436 293.176 42.517 292.932 42.198 292.443C41.879 291.952 41.7195 291.283 41.7195 290.437V290.271H43.1404ZM50.6501 290.412C50.5623 290.467 50.4727 290.513 50.3816 290.549C50.2937 290.581 50.1716 290.612 50.0154 290.642L49.7029 290.7C49.4099 290.752 49.2 290.816 49.073 290.891C48.8582 291.018 48.7507 291.215 48.7507 291.481C48.7507 291.719 48.8158 291.892 48.946 291.999C49.0795 292.103 49.2406 292.155 49.4294 292.155C49.7289 292.155 50.004 292.067 50.2546 291.892C50.5085 291.716 50.6404 291.395 50.6501 290.93V290.412ZM49.8054 289.763C50.0626 289.73 50.2465 289.689 50.3572 289.641C50.5557 289.556 50.655 289.424 50.655 289.245C50.655 289.027 50.5785 288.877 50.4255 288.796C50.2758 288.711 50.0544 288.669 49.7615 288.669C49.4327 288.669 49.2 288.75 49.0632 288.913C48.9656 289.034 48.9005 289.196 48.8679 289.401H47.5251C47.5544 288.936 47.6847 288.553 47.9158 288.254C48.2836 287.785 48.9151 287.551 49.8103 287.551C50.393 287.551 50.9106 287.666 51.363 287.897C51.8155 288.129 52.0417 288.565 52.0417 289.206V291.647C52.0417 291.817 52.045 292.022 52.0515 292.263C52.0613 292.445 52.0889 292.569 52.1345 292.634C52.1801 292.699 52.2485 292.753 52.3396 292.795V293H50.8259C50.7836 292.893 50.7543 292.792 50.738 292.697C50.7218 292.603 50.7087 292.495 50.699 292.375C50.5069 292.583 50.2856 292.761 50.0349 292.907C49.7354 293.08 49.3969 293.166 49.0193 293.166C48.5375 293.166 48.1388 293.029 47.823 292.756C47.5105 292.479 47.3542 292.089 47.3542 291.584C47.3542 290.93 47.6065 290.456 48.1111 290.163C48.3878 290.004 48.7947 289.89 49.3318 289.821L49.8054 289.763ZM56.2312 287.551C56.7813 287.551 57.2306 287.696 57.5789 287.985C57.9304 288.272 58.1062 288.749 58.1062 289.416V293H56.6804V289.763C56.6804 289.483 56.643 289.268 56.5681 289.118C56.4314 288.845 56.171 288.708 55.7869 288.708C55.3149 288.708 54.991 288.908 54.8152 289.309C54.724 289.52 54.6785 289.79 54.6785 290.119V293H53.2917V287.688H54.6345V288.464C54.8136 288.19 54.9828 287.993 55.1423 287.873C55.4288 287.658 55.7917 287.551 56.2312 287.551Z" fill="#CBD5E0"/>
<path d="M13.2332 258.028C13.2332 258.842 13.2999 259.465 13.4333 259.898C13.5668 260.328 13.8403 260.543 14.2537 260.543C14.6671 260.543 14.9373 260.328 15.0642 259.898C15.1944 259.465 15.2595 258.842 15.2595 258.028C15.2595 257.175 15.1944 256.544 15.0642 256.134C14.9373 255.724 14.6671 255.519 14.2537 255.519C13.8403 255.519 13.5668 255.724 13.4333 256.134C13.2999 256.544 13.2332 257.175 13.2332 258.028ZM14.2537 254.371C15.1554 254.371 15.7869 254.688 16.1482 255.323C16.5128 255.958 16.6951 256.86 16.6951 258.028C16.6951 259.197 16.5128 260.097 16.1482 260.729C15.7869 261.36 15.1554 261.676 14.2537 261.676C13.352 261.676 12.7188 261.36 12.3542 260.729C11.9929 260.097 11.8123 259.197 11.8123 258.028C11.8123 256.86 11.9929 255.958 12.3542 255.323C12.7188 254.688 13.352 254.371 14.2537 254.371Z" fill="#CBD5E0"/>
<path d="M1.19312 206.617V205.67C1.63257 205.65 1.94019 205.621 2.11597 205.582C2.39591 205.52 2.62378 205.396 2.79956 205.211C2.92 205.084 3.01115 204.915 3.073 204.703C3.10881 204.576 3.12671 204.482 3.12671 204.42H4.28394V211.5H2.85815V206.617H1.19312ZM7.79956 208.028C7.79956 208.842 7.86629 209.465 7.99976 209.898C8.13322 210.328 8.40666 210.543 8.82007 210.543C9.23348 210.543 9.50366 210.328 9.63062 209.898C9.76082 209.465 9.82593 208.842 9.82593 208.028C9.82593 207.175 9.76082 206.544 9.63062 206.134C9.50366 205.724 9.23348 205.519 8.82007 205.519C8.40666 205.519 8.13322 205.724 7.99976 206.134C7.86629 206.544 7.79956 207.175 7.79956 208.028ZM8.82007 204.371C9.72176 204.371 10.3533 204.688 10.7146 205.323C11.0792 205.958 11.2615 206.86 11.2615 208.028C11.2615 209.197 11.0792 210.097 10.7146 210.729C10.3533 211.36 9.72176 211.676 8.82007 211.676C7.91838 211.676 7.28524 211.36 6.92065 210.729C6.55933 210.097 6.37866 209.197 6.37866 208.028C6.37866 206.86 6.55933 205.958 6.92065 205.323C7.28524 204.688 7.91838 204.371 8.82007 204.371ZM13.366 208.028C13.366 208.842 13.4327 209.465 13.5662 209.898C13.6996 210.328 13.9731 210.543 14.3865 210.543C14.7999 210.543 15.0701 210.328 15.197 209.898C15.3272 209.465 15.3923 208.842 15.3923 208.028C15.3923 207.175 15.3272 206.544 15.197 206.134C15.0701 205.724 14.7999 205.519 14.3865 205.519C13.9731 205.519 13.6996 205.724 13.5662 206.134C13.4327 206.544 13.366 207.175 13.366 208.028ZM14.3865 204.371C15.2882 204.371 15.9197 204.688 16.281 205.323C16.6456 205.958 16.8279 206.86 16.8279 208.028C16.8279 209.197 16.6456 210.097 16.281 210.729C15.9197 211.36 15.2882 211.676 14.3865 211.676C13.4848 211.676 12.8516 211.36 12.4871 210.729C12.1257 210.097 11.9451 209.197 11.9451 208.028C11.9451 206.86 12.1257 205.958 12.4871 205.323C12.8516 204.688 13.4848 204.371 14.3865 204.371Z" fill="#CBD5E0"/>
<path d="M0.812256 161.5C0.825277 160.992 0.934326 160.528 1.1394 160.108C1.33797 159.636 1.80672 159.137 2.54565 158.609C3.18693 158.15 3.60197 157.822 3.79077 157.623C4.08049 157.314 4.22534 156.975 4.22534 156.607C4.22534 156.308 4.14233 156.059 3.97632 155.86C3.8103 155.662 3.57267 155.562 3.26343 155.562C2.84025 155.562 2.55216 155.72 2.39917 156.036C2.31128 156.218 2.2592 156.508 2.24292 156.905H0.890381C0.913167 156.303 1.02222 155.816 1.21753 155.445C1.58862 154.739 2.2478 154.386 3.19507 154.386C3.94377 154.386 4.53947 154.594 4.98218 155.011C5.42489 155.424 5.64624 155.973 5.64624 156.656C5.64624 157.18 5.48999 157.646 5.17749 158.053C4.97241 158.323 4.6355 158.624 4.16675 158.956L3.61011 159.352C3.2618 159.599 3.02254 159.778 2.89233 159.889C2.76538 159.999 2.65796 160.128 2.57007 160.274H5.66089V161.5H0.812256ZM7.79956 158.028C7.79956 158.842 7.86629 159.465 7.99976 159.898C8.13322 160.328 8.40666 160.543 8.82007 160.543C9.23348 160.543 9.50366 160.328 9.63062 159.898C9.76082 159.465 9.82593 158.842 9.82593 158.028C9.82593 157.175 9.76082 156.544 9.63062 156.134C9.50366 155.724 9.23348 155.519 8.82007 155.519C8.40666 155.519 8.13322 155.724 7.99976 156.134C7.86629 156.544 7.79956 157.175 7.79956 158.028ZM8.82007 154.371C9.72176 154.371 10.3533 154.688 10.7146 155.323C11.0792 155.958 11.2615 156.86 11.2615 158.028C11.2615 159.197 11.0792 160.097 10.7146 160.729C10.3533 161.36 9.72176 161.676 8.82007 161.676C7.91838 161.676 7.28524 161.36 6.92065 160.729C6.55933 160.097 6.37866 159.197 6.37866 158.028C6.37866 156.86 6.55933 155.958 6.92065 155.323C7.28524 154.688 7.91838 154.371 8.82007 154.371ZM13.366 158.028C13.366 158.842 13.4327 159.465 13.5662 159.898C13.6996 160.328 13.9731 160.543 14.3865 160.543C14.7999 160.543 15.0701 160.328 15.197 159.898C15.3272 159.465 15.3923 158.842 15.3923 158.028C15.3923 157.175 15.3272 156.544 15.197 156.134C15.0701 155.724 14.7999 155.519 14.3865 155.519C13.9731 155.519 13.6996 155.724 13.5662 156.134C13.4327 156.544 13.366 157.175 13.366 158.028ZM14.3865 154.371C15.2882 154.371 15.9197 154.688 16.281 155.323C16.6456 155.958 16.8279 156.86 16.8279 158.028C16.8279 159.197 16.6456 160.097 16.281 160.729C15.9197 161.36 15.2882 161.676 14.3865 161.676C13.4848 161.676 12.8516 161.36 12.4871 160.729C12.1257 160.097 11.9451 159.197 11.9451 158.028C11.9451 156.86 12.1257 155.958 12.4871 155.323C12.8516 154.688 13.4848 154.371 14.3865 154.371Z" fill="#CBD5E0"/>
<path d="M2.13062 109.327C2.13062 109.61 2.17619 109.845 2.26733 110.03C2.4366 110.372 2.74422 110.543 3.19019 110.543C3.46362 110.543 3.70125 110.45 3.90308 110.265C4.10815 110.076 4.21069 109.806 4.21069 109.454C4.21069 108.989 4.02189 108.678 3.64429 108.521C3.42944 108.434 3.0909 108.39 2.62866 108.39V107.394C3.08114 107.387 3.39689 107.343 3.57593 107.262C3.88517 107.125 4.03979 106.848 4.03979 106.432C4.03979 106.161 3.96004 105.942 3.80054 105.772C3.64429 105.603 3.42293 105.519 3.13647 105.519C2.8077 105.519 2.56519 105.623 2.40894 105.831C2.25594 106.039 2.1827 106.318 2.18921 106.666H0.890381C0.903402 106.314 0.963623 105.981 1.07104 105.665C1.18498 105.388 1.36401 105.133 1.60815 104.898C1.79045 104.732 2.00692 104.605 2.25757 104.518C2.50822 104.43 2.81584 104.386 3.18042 104.386C3.8575 104.386 4.40275 104.562 4.81616 104.913C5.23283 105.261 5.44116 105.73 5.44116 106.319C5.44116 106.736 5.31746 107.088 5.07007 107.374C4.91382 107.553 4.75106 107.675 4.58179 107.74C4.70874 107.74 4.89103 107.849 5.12866 108.067C5.48348 108.396 5.66089 108.845 5.66089 109.415C5.66089 110.014 5.45256 110.541 5.03589 110.997C4.62248 111.45 4.00887 111.676 3.19507 111.676C2.19246 111.676 1.49585 111.349 1.10522 110.694C0.900146 110.346 0.786214 109.89 0.763428 109.327H2.13062ZM7.79956 108.028C7.79956 108.842 7.86629 109.465 7.99976 109.898C8.13322 110.328 8.40666 110.543 8.82007 110.543C9.23348 110.543 9.50366 110.328 9.63062 109.898C9.76082 109.465 9.82593 108.842 9.82593 108.028C9.82593 107.175 9.76082 106.544 9.63062 106.134C9.50366 105.724 9.23348 105.519 8.82007 105.519C8.40666 105.519 8.13322 105.724 7.99976 106.134C7.86629 106.544 7.79956 107.175 7.79956 108.028ZM8.82007 104.371C9.72176 104.371 10.3533 104.688 10.7146 105.323C11.0792 105.958 11.2615 106.86 11.2615 108.028C11.2615 109.197 11.0792 110.097 10.7146 110.729C10.3533 111.36 9.72176 111.676 8.82007 111.676C7.91838 111.676 7.28524 111.36 6.92065 110.729C6.55933 110.097 6.37866 109.197 6.37866 108.028C6.37866 106.86 6.55933 105.958 6.92065 105.323C7.28524 104.688 7.91838 104.371 8.82007 104.371ZM13.366 108.028C13.366 108.842 13.4327 109.465 13.5662 109.898C13.6996 110.328 13.9731 110.543 14.3865 110.543C14.7999 110.543 15.0701 110.328 15.197 109.898C15.3272 109.465 15.3923 108.842 15.3923 108.028C15.3923 107.175 15.3272 106.544 15.197 106.134C15.0701 105.724 14.7999 105.519 14.3865 105.519C13.9731 105.519 13.6996 105.724 13.5662 106.134C13.4327 106.544 13.366 107.175 13.366 108.028ZM14.3865 104.371C15.2882 104.371 15.9197 104.688 16.281 105.323C16.6456 105.958 16.8279 106.86 16.8279 108.028C16.8279 109.197 16.6456 110.097 16.281 110.729C15.9197 111.36 15.2882 111.676 14.3865 111.676C13.4848 111.676 12.8516 111.36 12.4871 110.729C12.1257 110.097 11.9451 109.197 11.9451 108.028C11.9451 106.86 12.1257 105.958 12.4871 105.323C12.8516 104.688 13.4848 104.371 14.3865 104.371Z" fill="#CBD5E0"/>
<path d="M5.72925 59.9766H4.92847V61.5H3.56616V59.9766H0.763428V58.7607L3.36597 54.4639H4.92847V58.8877H5.72925V59.9766ZM3.56616 58.8877V55.8311L1.7937 58.8877H3.56616ZM7.79956 58.0283C7.79956 58.8421 7.86629 59.4655 7.99976 59.8984C8.13322 60.3281 8.40666 60.543 8.82007 60.543C9.23348 60.543 9.50366 60.3281 9.63062 59.8984C9.76082 59.4655 9.82593 58.8421 9.82593 58.0283C9.82593 57.1755 9.76082 56.5439 9.63062 56.1338C9.50366 55.7236 9.23348 55.5186 8.82007 55.5186C8.40666 55.5186 8.13322 55.7236 7.99976 56.1338C7.86629 56.5439 7.79956 57.1755 7.79956 58.0283ZM8.82007 54.3711C9.72176 54.3711 10.3533 54.6885 10.7146 55.3232C11.0792 55.958 11.2615 56.8597 11.2615 58.0283C11.2615 59.1969 11.0792 60.097 10.7146 60.7285C10.3533 61.36 9.72176 61.6758 8.82007 61.6758C7.91838 61.6758 7.28524 61.36 6.92065 60.7285C6.55933 60.097 6.37866 59.1969 6.37866 58.0283C6.37866 56.8597 6.55933 55.958 6.92065 55.3232C7.28524 54.6885 7.91838 54.3711 8.82007 54.3711ZM13.366 58.0283C13.366 58.8421 13.4327 59.4655 13.5662 59.8984C13.6996 60.3281 13.9731 60.543 14.3865 60.543C14.7999 60.543 15.0701 60.3281 15.197 59.8984C15.3272 59.4655 15.3923 58.8421 15.3923 58.0283C15.3923 57.1755 15.3272 56.5439 15.197 56.1338C15.0701 55.7236 14.7999 55.5186 14.3865 55.5186C13.9731 55.5186 13.6996 55.7236 13.5662 56.1338C13.4327 56.5439 13.366 57.1755 13.366 58.0283ZM14.3865 54.3711C15.2882 54.3711 15.9197 54.6885 16.281 55.3232C16.6456 55.958 16.8279 56.8597 16.8279 58.0283C16.8279 59.1969 16.6456 60.097 16.281 60.7285C15.9197 61.36 15.2882 61.6758 14.3865 61.6758C13.4848 61.6758 12.8516 61.36 12.4871 60.7285C12.1257 60.097 11.9451 59.1969 11.9451 58.0283C11.9451 56.8597 12.1257 55.958 12.4871 55.3232C12.8516 54.6885 13.4848 54.3711 14.3865 54.3711Z" fill="#CBD5E0"/>
<path d="M2.15015 9.60547C2.20549 9.9082 2.31128 10.1426 2.46753 10.3086C2.62378 10.4714 2.85164 10.5527 3.15112 10.5527C3.49618 10.5527 3.75822 10.4323 3.93726 10.1914C4.11955 9.94727 4.21069 9.64128 4.21069 9.27344C4.21069 8.91211 4.12606 8.60775 3.95679 8.36035C3.78752 8.1097 3.52384 7.98438 3.16577 7.98438C2.9965 7.98438 2.85002 8.00553 2.72632 8.04785C2.50822 8.12598 2.34383 8.27083 2.23315 8.48242L0.983154 8.42383L1.4812 4.5127H5.38257V5.69434H2.48706L2.23315 7.24219C2.448 7.10221 2.61564 7.00944 2.73608 6.96387C2.93791 6.889 3.18368 6.85156 3.47339 6.85156C4.05933 6.85156 4.57039 7.0485 5.00659 7.44238C5.44279 7.83626 5.66089 8.40918 5.66089 9.16113C5.66089 9.81543 5.45093 10.3997 5.03101 10.9141C4.61108 11.4284 3.98283 11.6855 3.14624 11.6855C2.47241 11.6855 1.91903 11.5049 1.48608 11.1436C1.05314 10.7822 0.812256 10.2695 0.763428 9.60547H2.15015ZM7.79956 8.02832C7.79956 8.84212 7.86629 9.46549 7.99976 9.89844C8.13322 10.3281 8.40666 10.543 8.82007 10.543C9.23348 10.543 9.50366 10.3281 9.63062 9.89844C9.76082 9.46549 9.82593 8.84212 9.82593 8.02832C9.82593 7.17546 9.76082 6.54395 9.63062 6.13379C9.50366 5.72363 9.23348 5.51855 8.82007 5.51855C8.40666 5.51855 8.13322 5.72363 7.99976 6.13379C7.86629 6.54395 7.79956 7.17546 7.79956 8.02832ZM8.82007 4.37109C9.72176 4.37109 10.3533 4.68848 10.7146 5.32324C11.0792 5.95801 11.2615 6.8597 11.2615 8.02832C11.2615 9.19694 11.0792 10.097 10.7146 10.7285C10.3533 11.36 9.72176 11.6758 8.82007 11.6758C7.91838 11.6758 7.28524 11.36 6.92065 10.7285C6.55933 10.097 6.37866 9.19694 6.37866 8.02832C6.37866 6.8597 6.55933 5.95801 6.92065 5.32324C7.28524 4.68848 7.91838 4.37109 8.82007 4.37109ZM13.366 8.02832C13.366 8.84212 13.4327 9.46549 13.5662 9.89844C13.6996 10.3281 13.9731 10.543 14.3865 10.543C14.7999 10.543 15.0701 10.3281 15.197 9.89844C15.3272 9.46549 15.3923 8.84212 15.3923 8.02832C15.3923 7.17546 15.3272 6.54395 15.197 6.13379C15.0701 5.72363 14.7999 5.51855 14.3865 5.51855C13.9731 5.51855 13.6996 5.72363 13.5662 6.13379C13.4327 6.54395 13.366 7.17546 13.366 8.02832ZM14.3865 4.37109C15.2882 4.37109 15.9197 4.68848 16.281 5.32324C16.6456 5.95801 16.8279 6.8597 16.8279 8.02832C16.8279 9.19694 16.6456 10.097 16.281 10.7285C15.9197 11.36 15.2882 11.6758 14.3865 11.6758C13.4848 11.6758 12.8516 11.36 12.4871 10.7285C12.1257 10.097 11.9451 9.19694 11.9451 8.02832C11.9451 6.8597 12.1257 5.95801 12.4871 5.32324C12.8516 4.68848 13.4848 4.37109 14.3865 4.37109Z" fill="#CBD5E0"/>
<line x1="41.9998" y1="257.5" x2="881" y2="257.5" stroke="#E2E8F0" stroke-linecap="round" stroke-linejoin="round" stroke-dasharray="3.5 3.5"/>
<line x1="41.9998" y1="207.5" x2="881" y2="207.5" stroke="#E2E8F0" stroke-linecap="round" stroke-linejoin="round" stroke-dasharray="3.5 3.5"/>
<line x1="41.9998" y1="157.5" x2="881" y2="157.5" stroke="#E2E8F0" stroke-linecap="round" stroke-linejoin="round" stroke-dasharray="3.5 3.5"/>
<line x1="41.9998" y1="107.5" x2="881" y2="107.5" stroke="#E2E8F0" stroke-linecap="round" stroke-linejoin="round" stroke-dasharray="3.5 3.5"/>
<line x1="41.9998" y1="57.5" x2="881" y2="57.5001" stroke="#E2E8F0" stroke-linecap="round" stroke-linejoin="round" stroke-dasharray="3.5 3.5"/>
<line x1="41.9998" y1="7.5" x2="881" y2="7.50007" stroke="#E2E8F0" stroke-linecap="round" stroke-linejoin="round" stroke-dasharray="3.5 3.5"/>
<path d="M766.703 177.545C810.311 164.448 861.404 183.003 881.5 193.917V257.75H41.4998V8C83.7007 15.4922 110.83 77.0946 117.612 116.22C123.144 148.132 123.39 170.886 152.78 177.545C182.327 184.24 217.359 162.936 247 134.077C270.713 110.99 306.115 124.457 320.851 134.077C346.976 150.819 390.009 162.172 424.574 145.079C467.78 123.713 491.643 129.817 546.153 145.079C600.662 160.341 595.136 170.053 640.603 193.917C686.069 217.781 712.194 193.917 766.703 177.545Z" fill="url(#paint0_linear_10_239)"/>
<path d="M881.5 193.917C861.404 183.003 810.311 164.448 766.703 177.545C712.194 193.917 686.069 217.781 640.603 193.917C595.136 170.053 600.662 160.341 546.153 145.079C491.643 129.817 467.78 123.713 424.574 145.079C390.009 162.172 346.976 150.819 320.851 134.077C306.115 124.457 270.713 110.99 247 134.077C217.359 162.936 182.327 184.24 152.78 177.545C123.39 170.886 123.144 148.132 117.612 116.22C110.83 77.0946 83.7007 15.4922 41.4998 8" stroke="#2D3748" stroke-width="3"/>
<path d="M155.414 150.457C112.141 137.369 61.441 155.91 41.4998 166.817V257.5H880.5V42.9074C838.623 50.3941 803.05 48.4526 796.319 87.5498C790.83 119.438 790.586 142.175 761.422 148.83C732.102 155.52 715.059 116.387 685.646 87.5498C662.115 64.4798 622.486 94.5 607.862 104.113C581.938 120.842 523.007 84.3408 497.467 55.648C461 14.6781 413.042 10.9308 376.823 55.648C340.604 100.365 304.677 63.7034 259.56 87.5498C214.443 111.396 209.504 166.817 155.414 150.457Z" fill="url(#paint1_linear_10_239)"/>
<path d="M41.4998 167C61.441 156.079 112.141 137.515 155.414 150.619C209.504 167 214.443 111.509 259.56 87.6318C304.677 63.7548 340.604 100.464 376.823 55.6892C413.042 10.9147 461 14.6668 497.467 55.6892C523.007 84.4187 581.938 120.967 607.862 104.216C622.486 94.5909 662.115 64.5322 685.646 87.6318C715.059 116.506 732.102 155.689 761.422 148.99C790.586 142.327 790.83 119.56 796.319 87.6318C803.05 48.4846 838.623 50.4285 880.5 42.9323" stroke="#4FD1C5" stroke-width="3"/>
<defs>
<linearGradient id="paint0_linear_10_239" x1="461.5" y1="8" x2="461.5" y2="257.75" gradientUnits="userSpaceOnUse">
<stop stop-color="#2D3748" stop-opacity="0.36"/>
<stop offset="1" stop-color="#2D3748" stop-opacity="0"/>
</linearGradient>
<linearGradient id="paint1_linear_10_239" x1="461" y1="23.5" x2="461" y2="257.5" gradientUnits="userSpaceOnUse">
<stop stop-color="#4FD1C5" stop-opacity="0.54"/>
<stop offset="1" stop-color="#4FD1C5" stop-opacity="0"/>
</linearGradient>
</defs>
</svg>
