<svg width="620" height="222" viewBox="0 0 620 222" fill="none" xmlns="http://www.w3.org/2000/svg">
<rect x="-0.000244141" width="620" height="222" rx="12" fill="url(#paint0_linear_10_107)"/>
<rect x="97.9998" y="87.5" width="7" height="99.5" rx="3.5" fill="white"/>
<rect x="158" y="116" width="7" height="71" rx="3.5" fill="white"/>
<rect x="218" y="149" width="7" height="38" rx="3.5" fill="white"/>
<rect x="278" y="98" width="7" height="89" rx="3.5" fill="white"/>
<rect x="338" y="33.5" width="7" height="153.5" rx="3.5" fill="white"/>
<rect x="398" y="60.5" width="7" height="126.5" rx="3.5" fill="white"/>
<rect x="458" y="42.5" width="7" height="144.5" rx="3.5" fill="white"/>
<rect x="518" y="98" width="7" height="89" rx="3.5" fill="white"/>
<rect x="578" y="137" width="7" height="50" rx="3.5" fill="white"/>
<path d="M31.7332 183.528C31.7332 184.342 31.7999 184.965 31.9333 185.398C32.0668 185.828 32.3403 186.043 32.7537 186.043C33.1671 186.043 33.4373 185.828 33.5642 185.398C33.6944 184.965 33.7595 184.342 33.7595 183.528C33.7595 182.675 33.6944 182.044 33.5642 181.634C33.4373 181.224 33.1671 181.019 32.7537 181.019C32.3403 181.019 32.0668 181.224 31.9333 181.634C31.7999 182.044 31.7332 182.675 31.7332 183.528ZM32.7537 179.871C33.6554 179.871 34.2869 180.188 34.6482 180.823C35.0128 181.458 35.1951 182.36 35.1951 183.528C35.1951 184.697 35.0128 185.597 34.6482 186.229C34.2869 186.86 33.6554 187.176 32.7537 187.176C31.852 187.176 31.2188 186.86 30.8542 186.229C30.4929 185.597 30.3123 184.697 30.3123 183.528C30.3123 182.36 30.4929 181.458 30.8542 180.823C31.2188 180.188 31.852 179.871 32.7537 179.871Z" fill="white"/>
<path d="M30.6931 153.617V152.67C31.1326 152.65 31.4402 152.621 31.616 152.582C31.8959 152.52 32.1238 152.396 32.2996 152.211C32.42 152.084 32.5111 151.915 32.573 151.703C32.6088 151.576 32.6267 151.482 32.6267 151.42H33.7839V158.5H32.3582V153.617H30.6931ZM37.2996 155.028C37.2996 155.842 37.3663 156.465 37.4998 156.898C37.6332 157.328 37.9067 157.543 38.3201 157.543C38.7335 157.543 39.0037 157.328 39.1306 156.898C39.2608 156.465 39.3259 155.842 39.3259 155.028C39.3259 154.175 39.2608 153.544 39.1306 153.134C39.0037 152.724 38.7335 152.519 38.3201 152.519C37.9067 152.519 37.6332 152.724 37.4998 153.134C37.3663 153.544 37.2996 154.175 37.2996 155.028ZM38.3201 151.371C39.2218 151.371 39.8533 151.688 40.2146 152.323C40.5792 152.958 40.7615 153.86 40.7615 155.028C40.7615 156.197 40.5792 157.097 40.2146 157.729C39.8533 158.36 39.2218 158.676 38.3201 158.676C37.4184 158.676 36.7852 158.36 36.4207 157.729C36.0593 157.097 35.8787 156.197 35.8787 155.028C35.8787 153.86 36.0593 152.958 36.4207 152.323C36.7852 151.688 37.4184 151.371 38.3201 151.371ZM42.866 155.028C42.866 155.842 42.9327 156.465 43.0662 156.898C43.1996 157.328 43.4731 157.543 43.8865 157.543C44.2999 157.543 44.5701 157.328 44.697 156.898C44.8272 156.465 44.8923 155.842 44.8923 155.028C44.8923 154.175 44.8272 153.544 44.697 153.134C44.5701 152.724 44.2999 152.519 43.8865 152.519C43.4731 152.519 43.1996 152.724 43.0662 153.134C42.9327 153.544 42.866 154.175 42.866 155.028ZM43.8865 151.371C44.7882 151.371 45.4197 151.688 45.781 152.323C46.1456 152.958 46.3279 153.86 46.3279 155.028C46.3279 156.197 46.1456 157.097 45.781 157.729C45.4197 158.36 44.7882 158.676 43.8865 158.676C42.9848 158.676 42.3516 158.36 41.9871 157.729C41.6257 157.097 41.4451 156.197 41.4451 155.028C41.4451 153.86 41.6257 152.958 41.9871 152.323C42.3516 151.688 42.9848 151.371 43.8865 151.371Z" fill="white"/>
<path d="M30.3123 129.5C30.3253 128.992 30.4343 128.528 30.6394 128.108C30.838 127.636 31.3067 127.137 32.0457 126.609C32.6869 126.15 33.102 125.822 33.2908 125.623C33.5805 125.314 33.7253 124.975 33.7253 124.607C33.7253 124.308 33.6423 124.059 33.4763 123.86C33.3103 123.662 33.0727 123.562 32.7634 123.562C32.3403 123.562 32.0522 123.72 31.8992 124.036C31.8113 124.218 31.7592 124.508 31.7429 124.905H30.3904C30.4132 124.303 30.5222 123.816 30.7175 123.445C31.0886 122.739 31.7478 122.386 32.6951 122.386C33.4438 122.386 34.0395 122.594 34.4822 123.011C34.9249 123.424 35.1462 123.973 35.1462 124.656C35.1462 125.18 34.99 125.646 34.6775 126.053C34.4724 126.323 34.1355 126.624 33.6667 126.956L33.1101 127.352C32.7618 127.599 32.5225 127.778 32.3923 127.889C32.2654 127.999 32.158 128.128 32.0701 128.274H35.1609V129.5H30.3123ZM37.2996 126.028C37.2996 126.842 37.3663 127.465 37.4998 127.898C37.6332 128.328 37.9067 128.543 38.3201 128.543C38.7335 128.543 39.0037 128.328 39.1306 127.898C39.2608 127.465 39.3259 126.842 39.3259 126.028C39.3259 125.175 39.2608 124.544 39.1306 124.134C39.0037 123.724 38.7335 123.519 38.3201 123.519C37.9067 123.519 37.6332 123.724 37.4998 124.134C37.3663 124.544 37.2996 125.175 37.2996 126.028ZM38.3201 122.371C39.2218 122.371 39.8533 122.688 40.2146 123.323C40.5792 123.958 40.7615 124.86 40.7615 126.028C40.7615 127.197 40.5792 128.097 40.2146 128.729C39.8533 129.36 39.2218 129.676 38.3201 129.676C37.4184 129.676 36.7852 129.36 36.4207 128.729C36.0593 128.097 35.8787 127.197 35.8787 126.028C35.8787 124.86 36.0593 123.958 36.4207 123.323C36.7852 122.688 37.4184 122.371 38.3201 122.371ZM42.866 126.028C42.866 126.842 42.9327 127.465 43.0662 127.898C43.1996 128.328 43.4731 128.543 43.8865 128.543C44.2999 128.543 44.5701 128.328 44.697 127.898C44.8272 127.465 44.8923 126.842 44.8923 126.028C44.8923 125.175 44.8272 124.544 44.697 124.134C44.5701 123.724 44.2999 123.519 43.8865 123.519C43.4731 123.519 43.1996 123.724 43.0662 124.134C42.9327 124.544 42.866 125.175 42.866 126.028ZM43.8865 122.371C44.7882 122.371 45.4197 122.688 45.781 123.323C46.1456 123.958 46.3279 124.86 46.3279 126.028C46.3279 127.197 46.1456 128.097 45.781 128.729C45.4197 129.36 44.7882 129.676 43.8865 129.676C42.9848 129.676 42.3516 129.36 41.9871 128.729C41.6257 128.097 41.4451 127.197 41.4451 126.028C41.4451 124.86 41.6257 123.958 41.9871 123.323C42.3516 122.688 42.9848 122.371 43.8865 122.371Z" fill="white"/>
<path d="M31.6306 98.3271C31.6306 98.6104 31.6762 98.8447 31.7673 99.0303C31.9366 99.3721 32.2442 99.543 32.6902 99.543C32.9636 99.543 33.2013 99.4502 33.4031 99.2646C33.6082 99.0758 33.7107 98.8057 33.7107 98.4541C33.7107 97.9886 33.5219 97.6777 33.1443 97.5215C32.9294 97.4336 32.5909 97.3896 32.1287 97.3896V96.3936C32.5811 96.387 32.8969 96.3431 33.0759 96.2617C33.3852 96.125 33.5398 95.8483 33.5398 95.4316C33.5398 95.1615 33.46 94.9417 33.3005 94.7725C33.1443 94.6032 32.9229 94.5186 32.6365 94.5186C32.3077 94.5186 32.0652 94.6227 31.9089 94.8311C31.7559 95.0394 31.6827 95.3177 31.6892 95.666H30.3904C30.4034 95.3145 30.4636 94.9808 30.571 94.665C30.685 94.3883 30.864 94.1328 31.1082 93.8984C31.2904 93.7324 31.5069 93.6055 31.7576 93.5176C32.0082 93.4297 32.3158 93.3857 32.6804 93.3857C33.3575 93.3857 33.9028 93.5615 34.3162 93.9131C34.7328 94.2614 34.9412 94.7301 34.9412 95.3193C34.9412 95.736 34.8175 96.0876 34.5701 96.374C34.4138 96.5531 34.2511 96.6751 34.0818 96.7402C34.2087 96.7402 34.391 96.8493 34.6287 97.0674C34.9835 97.3962 35.1609 97.8454 35.1609 98.415C35.1609 99.014 34.9526 99.5413 34.5359 99.9971C34.1225 100.45 33.5089 100.676 32.6951 100.676C31.6925 100.676 30.9958 100.349 30.6052 99.6943C30.4001 99.346 30.2862 98.8903 30.2634 98.3271H31.6306ZM37.2996 97.0283C37.2996 97.8421 37.3663 98.4655 37.4998 98.8984C37.6332 99.3281 37.9067 99.543 38.3201 99.543C38.7335 99.543 39.0037 99.3281 39.1306 98.8984C39.2608 98.4655 39.3259 97.8421 39.3259 97.0283C39.3259 96.1755 39.2608 95.5439 39.1306 95.1338C39.0037 94.7236 38.7335 94.5186 38.3201 94.5186C37.9067 94.5186 37.6332 94.7236 37.4998 95.1338C37.3663 95.5439 37.2996 96.1755 37.2996 97.0283ZM38.3201 93.3711C39.2218 93.3711 39.8533 93.6885 40.2146 94.3232C40.5792 94.958 40.7615 95.8597 40.7615 97.0283C40.7615 98.1969 40.5792 99.097 40.2146 99.7285C39.8533 100.36 39.2218 100.676 38.3201 100.676C37.4184 100.676 36.7852 100.36 36.4207 99.7285C36.0593 99.097 35.8787 98.1969 35.8787 97.0283C35.8787 95.8597 36.0593 94.958 36.4207 94.3232C36.7852 93.6885 37.4184 93.3711 38.3201 93.3711ZM42.866 97.0283C42.866 97.8421 42.9327 98.4655 43.0662 98.8984C43.1996 99.3281 43.4731 99.543 43.8865 99.543C44.2999 99.543 44.5701 99.3281 44.697 98.8984C44.8272 98.4655 44.8923 97.8421 44.8923 97.0283C44.8923 96.1755 44.8272 95.5439 44.697 95.1338C44.5701 94.7236 44.2999 94.5186 43.8865 94.5186C43.4731 94.5186 43.1996 94.7236 43.0662 95.1338C42.9327 95.5439 42.866 96.1755 42.866 97.0283ZM43.8865 93.3711C44.7882 93.3711 45.4197 93.6885 45.781 94.3232C46.1456 94.958 46.3279 95.8597 46.3279 97.0283C46.3279 98.1969 46.1456 99.097 45.781 99.7285C45.4197 100.36 44.7882 100.676 43.8865 100.676C42.9848 100.676 42.3516 100.36 41.9871 99.7285C41.6257 99.097 41.4451 98.1969 41.4451 97.0283C41.4451 95.8597 41.6257 94.958 41.9871 94.3232C42.3516 93.6885 42.9848 93.3711 43.8865 93.3711Z" fill="white"/>
<path d="M35.2292 69.9766H34.4285V71.5H33.0662V69.9766H30.2634V68.7607L32.866 64.4639H34.4285V68.8877H35.2292V69.9766ZM33.0662 68.8877V65.8311L31.2937 68.8877H33.0662ZM37.2996 68.0283C37.2996 68.8421 37.3663 69.4655 37.4998 69.8984C37.6332 70.3281 37.9067 70.543 38.3201 70.543C38.7335 70.543 39.0037 70.3281 39.1306 69.8984C39.2608 69.4655 39.3259 68.8421 39.3259 68.0283C39.3259 67.1755 39.2608 66.5439 39.1306 66.1338C39.0037 65.7236 38.7335 65.5186 38.3201 65.5186C37.9067 65.5186 37.6332 65.7236 37.4998 66.1338C37.3663 66.5439 37.2996 67.1755 37.2996 68.0283ZM38.3201 64.3711C39.2218 64.3711 39.8533 64.6885 40.2146 65.3232C40.5792 65.958 40.7615 66.8597 40.7615 68.0283C40.7615 69.1969 40.5792 70.097 40.2146 70.7285C39.8533 71.36 39.2218 71.6758 38.3201 71.6758C37.4184 71.6758 36.7852 71.36 36.4207 70.7285C36.0593 70.097 35.8787 69.1969 35.8787 68.0283C35.8787 66.8597 36.0593 65.958 36.4207 65.3232C36.7852 64.6885 37.4184 64.3711 38.3201 64.3711ZM42.866 68.0283C42.866 68.8421 42.9327 69.4655 43.0662 69.8984C43.1996 70.3281 43.4731 70.543 43.8865 70.543C44.2999 70.543 44.5701 70.3281 44.697 69.8984C44.8272 69.4655 44.8923 68.8421 44.8923 68.0283C44.8923 67.1755 44.8272 66.5439 44.697 66.1338C44.5701 65.7236 44.2999 65.5186 43.8865 65.5186C43.4731 65.5186 43.1996 65.7236 43.0662 66.1338C42.9327 66.5439 42.866 67.1755 42.866 68.0283ZM43.8865 64.3711C44.7882 64.3711 45.4197 64.6885 45.781 65.3232C46.1456 65.958 46.3279 66.8597 46.3279 68.0283C46.3279 69.1969 46.1456 70.097 45.781 70.7285C45.4197 71.36 44.7882 71.6758 43.8865 71.6758C42.9848 71.6758 42.3516 71.36 41.9871 70.7285C41.6257 70.097 41.4451 69.1969 41.4451 68.0283C41.4451 66.8597 41.6257 65.958 41.9871 65.3232C42.3516 64.6885 42.9848 64.3711 43.8865 64.3711Z" fill="white"/>
<path d="M31.6501 40.6055C31.7055 40.9082 31.8113 41.1426 31.9675 41.3086C32.1238 41.4714 32.3516 41.5527 32.6511 41.5527C32.9962 41.5527 33.2582 41.4323 33.4373 41.1914C33.6195 40.9473 33.7107 40.6413 33.7107 40.2734C33.7107 39.9121 33.6261 39.6077 33.4568 39.3604C33.2875 39.1097 33.0238 38.9844 32.6658 38.9844C32.4965 38.9844 32.35 39.0055 32.2263 39.0479C32.0082 39.126 31.8438 39.2708 31.7332 39.4824L30.4832 39.4238L30.9812 35.5127H34.8826V36.6943H31.9871L31.7332 38.2422C31.948 38.1022 32.1156 38.0094 32.2361 37.9639C32.4379 37.889 32.6837 37.8516 32.9734 37.8516C33.5593 37.8516 34.0704 38.0485 34.5066 38.4424C34.9428 38.8363 35.1609 39.4092 35.1609 40.1611C35.1609 40.8154 34.9509 41.3997 34.531 41.9141C34.1111 42.4284 33.4828 42.6855 32.6462 42.6855C31.9724 42.6855 31.419 42.5049 30.9861 42.1436C30.5531 41.7822 30.3123 41.2695 30.2634 40.6055H31.6501ZM37.2996 39.0283C37.2996 39.8421 37.3663 40.4655 37.4998 40.8984C37.6332 41.3281 37.9067 41.543 38.3201 41.543C38.7335 41.543 39.0037 41.3281 39.1306 40.8984C39.2608 40.4655 39.3259 39.8421 39.3259 39.0283C39.3259 38.1755 39.2608 37.5439 39.1306 37.1338C39.0037 36.7236 38.7335 36.5186 38.3201 36.5186C37.9067 36.5186 37.6332 36.7236 37.4998 37.1338C37.3663 37.5439 37.2996 38.1755 37.2996 39.0283ZM38.3201 35.3711C39.2218 35.3711 39.8533 35.6885 40.2146 36.3232C40.5792 36.958 40.7615 37.8597 40.7615 39.0283C40.7615 40.1969 40.5792 41.097 40.2146 41.7285C39.8533 42.36 39.2218 42.6758 38.3201 42.6758C37.4184 42.6758 36.7852 42.36 36.4207 41.7285C36.0593 41.097 35.8787 40.1969 35.8787 39.0283C35.8787 37.8597 36.0593 36.958 36.4207 36.3232C36.7852 35.6885 37.4184 35.3711 38.3201 35.3711ZM42.866 39.0283C42.866 39.8421 42.9327 40.4655 43.0662 40.8984C43.1996 41.3281 43.4731 41.543 43.8865 41.543C44.2999 41.543 44.5701 41.3281 44.697 40.8984C44.8272 40.4655 44.8923 39.8421 44.8923 39.0283C44.8923 38.1755 44.8272 37.5439 44.697 37.1338C44.5701 36.7236 44.2999 36.5186 43.8865 36.5186C43.4731 36.5186 43.1996 36.7236 43.0662 37.1338C42.9327 37.5439 42.866 38.1755 42.866 39.0283ZM43.8865 35.3711C44.7882 35.3711 45.4197 35.6885 45.781 36.3232C46.1456 36.958 46.3279 37.8597 46.3279 39.0283C46.3279 40.1969 46.1456 41.097 45.781 41.7285C45.4197 42.36 44.7882 42.6758 43.8865 42.6758C42.9848 42.6758 42.3516 42.36 41.9871 41.7285C41.6257 41.097 41.4451 40.1969 41.4451 39.0283C41.4451 37.8597 41.6257 36.958 41.9871 36.3232C42.3516 35.6885 42.9848 35.3711 43.8865 35.3711Z" fill="white"/>
<defs>
<linearGradient id="paint0_linear_10_107" x1="15.9998" y1="222" x2="488.25" y2="27.75" gradientUnits="userSpaceOnUse">
<stop stop-color="#313860"/>
<stop offset="1" stop-color="#151928"/>
</linearGradient>
</defs>
</svg>
