<svg width="128" height="24" viewBox="0 0 128 24" fill="none" xmlns="http://www.w3.org/2000/svg">
<path d="M0.731171 14.7442V14.6933C0.731171 9.63179 4.80382 5.52783 10.2336 5.52783C15.6635 5.52783 19.6853 9.58148 19.6853 14.643V14.6939C19.6853 19.7543 15.6127 23.8594 10.1828 23.8594C4.75303 23.8594 0.731171 19.8046 0.731171 14.7442ZM14.7075 14.7442V14.6933C14.7075 12.1501 12.8735 9.93422 10.1828 9.93422C7.4922 9.93422 5.73324 12.0998 5.73324 14.643V14.6939C5.73324 17.2371 7.56895 19.453 10.2331 19.453C12.8972 19.453 14.7069 17.2874 14.7069 14.7442H14.7075Z" fill="#4FD1C5"/>
<path d="M21.6203 14.7442V14.6933C21.6203 9.55661 25.5672 5.52783 30.896 5.52783C34.4906 5.52783 36.8038 7.03827 38.3618 9.20387L34.6921 12.0495C33.6854 10.7912 32.5302 9.98509 30.8463 9.98509C28.3825 9.98509 26.6484 12.0755 26.6484 14.643V14.6939C26.6484 17.3366 28.3825 19.4027 30.8463 19.4027C32.6803 19.4027 33.7621 18.5463 34.8174 17.262L38.4871 19.8804C36.828 22.172 34.5911 23.86 30.6945 23.86C25.6676 23.86 21.6198 20.0076 21.6198 14.7448L21.6203 14.7442Z" fill="#4FD1C5"/>
<path d="M44.8717 10.1615H39.592V5.88113H55.0266V10.1615H49.7469V23.5061H44.8717V10.1615Z" fill="#4FD1C5"/>
<path d="M55.8053 14.7442V14.6933C55.8053 9.63179 59.8779 5.52783 65.3078 5.52783C70.7376 5.52783 74.7594 9.58148 74.7594 14.643V14.6939C74.7594 19.7543 70.6868 23.8594 65.257 23.8594C59.8272 23.8594 55.8053 19.8046 55.8053 14.7442ZM69.7816 14.7442V14.6933C69.7816 12.1501 67.9476 9.93422 65.257 9.93422C62.5663 9.93422 60.8074 12.0998 60.8074 14.643V14.6939C60.8074 17.2371 62.6431 19.453 65.3072 19.453C67.9713 19.453 69.7811 17.2874 69.7811 14.7442H69.7816Z" fill="#4FD1C5"/>
<path d="M77.2983 5.88055H84.8392C89.2888 5.88055 92.1538 8.17221 92.1538 12.0749V12.1241C92.1538 16.2789 88.9621 18.4705 84.5881 18.4705H82.1751V23.5061H77.2983V5.88055ZM84.4871 14.6424C86.2212 14.6424 87.277 13.7352 87.277 12.3508V12.2999C87.277 10.7895 86.2212 9.98395 84.4622 9.98395H82.1745V14.6419H84.4865L84.4871 14.6424Z" fill="#4FD1C5"/>
<path d="M93.989 15.7753V5.88055H98.9408V15.6752C98.9408 18.2184 100.222 19.4264 102.183 19.4264C104.144 19.4264 105.425 18.2676 105.425 15.8013V5.88055H110.377V15.6492C110.377 21.3399 107.135 23.8328 102.132 23.8328C97.1294 23.8328 93.9884 21.2896 93.9884 15.7753H93.989Z" fill="#4FD1C5"/>
<path d="M111.937 20.8877L114.652 17.6385C116.386 19.0246 118.322 19.7532 120.358 19.7532C121.665 19.7532 122.368 19.3004 122.368 18.5452V18.4943C122.368 17.764 121.79 17.3615 119.402 16.8075C115.657 15.9511 112.766 14.8935 112.766 11.2683V11.2174C112.766 7.94387 115.355 5.57703 119.578 5.57703C122.57 5.57703 124.907 6.38255 126.817 7.919L124.38 11.3678C122.771 10.235 121.011 9.63067 119.452 9.63067C118.271 9.63067 117.693 10.1343 117.693 10.7635V10.8144C117.693 11.6199 118.295 11.9732 120.734 12.5272C124.781 13.4079 127.295 14.7171 127.295 18.0155V18.0664C127.295 21.6673 124.454 23.808 120.181 23.808C117.065 23.808 114.098 22.8255 111.936 20.8872L111.937 20.8877Z" fill="#4FD1C5"/>
<path d="M124.048 1.10563H123.245V3.6788H122.735V1.10563H121.933V0.623444H124.047V1.10563H124.048ZM126.042 2.78904L126.755 0.623444H127.488V3.6788H127.01V1.29048H126.997L126.214 3.6788H125.857L125.074 1.29048H125.062V3.6788H124.584V0.623444H125.323L126.043 2.78904H126.042Z" fill="#4FD1C5"/>
</svg>
