<svg width="11" height="12" viewBox="0 0 11 12" fill="none" xmlns="http://www.w3.org/2000/svg">
<path d="M9.47263 3.42541C9.4856 3.41784 9.49636 3.40701 9.50384 3.39398C9.51132 3.38096 9.51526 3.3662 9.51526 3.35118C9.51526 3.33616 9.51132 3.32141 9.50384 3.30838C9.49636 3.29536 9.4856 3.28452 9.47263 3.27695L6.1911 1.37043C5.98114 1.24873 5.74275 1.18463 5.50006 1.18463C5.25737 1.18463 5.01898 1.24873 4.80901 1.37043L1.52814 3.27695C1.51516 3.28452 1.5044 3.29536 1.49692 3.30838C1.48944 3.32141 1.4855 3.33616 1.4855 3.35118C1.4855 3.3662 1.48944 3.38096 1.49692 3.39398C1.5044 3.40701 1.51516 3.41784 1.52814 3.42541L5.4572 5.7367C5.47041 5.74448 5.48547 5.74859 5.50081 5.74859C5.51615 5.74859 5.53121 5.74448 5.54442 5.7367L9.47263 3.42541Z" fill="#2D3748"/>
<path d="M1.16033 4.00974C1.14722 4.00218 1.13235 3.99821 1.11722 3.99823C1.10208 3.99825 1.08723 4.00227 1.07415 4.00988C1.06107 4.01749 1.05023 4.02842 1.04272 4.04156C1.03522 4.0547 1.03132 4.06959 1.03142 4.08472V7.82064C1.03174 8.00068 1.07919 8.17749 1.16905 8.33349C1.25891 8.4895 1.38804 8.61926 1.54361 8.70988L5.02751 10.7988C5.04057 10.8063 5.05538 10.8103 5.07046 10.8103C5.08554 10.8103 5.10035 10.8064 5.11341 10.7988C5.12647 10.7913 5.13732 10.7805 5.14487 10.7674C5.15242 10.7544 5.1564 10.7395 5.15642 10.7245V6.39C5.1564 6.37493 5.15243 6.36013 5.14488 6.34708C5.13734 6.33403 5.1265 6.3232 5.11345 6.31566L1.16033 4.00974Z" fill="#2D3748"/>
<path d="M5.84386 6.40506V10.7234C5.84387 10.7385 5.84785 10.7533 5.8554 10.7664C5.86295 10.7794 5.8738 10.7902 5.88686 10.7978C5.89993 10.8053 5.91474 10.8093 5.92982 10.8093C5.94489 10.8093 5.95971 10.8053 5.97276 10.7978L9.45645 8.70883C9.6119 8.61833 9.74098 8.48875 9.83086 8.33295C9.92075 8.17714 9.96832 8.00054 9.96886 7.82067V4.08475C9.9688 4.06969 9.96479 4.05491 9.95723 4.04189C9.94966 4.02887 9.93881 4.01806 9.92576 4.01055C9.9127 4.00305 9.8979 3.9991 9.88284 3.99912C9.86778 3.99913 9.85299 4.0031 9.83995 4.01063L5.88683 6.33094C5.87381 6.33846 5.86299 6.34926 5.85545 6.36226C5.84791 6.37527 5.84391 6.39003 5.84386 6.40506V6.40506Z" fill="#2D3748"/>
</svg>
