<svg width="11" height="12" viewBox="0 0 11 12" fill="none" xmlns="http://www.w3.org/2000/svg">
<path d="M4.68614 4.08953C4.68614 4.36883 4.68614 4.63953 4.77422 4.89304C3.84825 5.98015 1.40333 8.85261 1.17559 9.07175C1.13033 9.11236 1.09412 9.16205 1.06932 9.21757C1.04452 9.27309 1.03169 9.33321 1.03165 9.39402C1.03165 9.57664 1.14337 9.75281 1.2379 9.85164C1.37969 9.99988 1.98555 10.5606 2.09727 10.4532C2.42813 10.1309 2.49473 10.045 2.63008 9.91179C2.83419 9.71199 2.6086 9.30379 2.6795 9.13836C2.7504 8.97293 2.82559 8.9407 2.94805 8.91492C3.07051 8.88914 3.28751 8.97722 3.45723 8.97937C3.63555 8.98152 3.73223 8.90632 3.86544 8.78172C3.97286 8.68289 4.0502 8.5905 4.05235 8.44656C4.05665 8.2532 3.77735 7.99754 3.98575 7.79343C4.19415 7.58933 4.49493 7.92664 4.71622 7.90086C4.93751 7.87507 5.20606 7.56785 5.23399 7.43679C5.26192 7.30574 4.98262 6.96843 5.02559 6.77722C5.04063 6.71277 5.17169 6.56238 5.27051 6.54089C5.36934 6.51941 5.80762 6.68914 5.90645 6.66765C6.02676 6.64187 6.16641 6.51511 6.28028 6.44422C6.61329 6.58816 6.91622 6.64617 7.30508 6.64617C8.77676 6.64617 9.96915 5.4989 9.96915 4.08523C9.96915 2.67156 8.77676 1.52924 7.30508 1.52924C5.8334 1.52924 4.68614 2.67586 4.68614 4.08953ZM8.59415 3.59174C8.59415 3.72771 8.55382 3.86063 8.47828 3.97369C8.40274 4.08675 8.29537 4.17487 8.16974 4.2269C8.04412 4.27894 7.90588 4.29255 7.77252 4.26603C7.63916 4.2395 7.51666 4.17402 7.42051 4.07787C7.32436 3.98172 7.25888 3.85922 7.23236 3.72586C7.20583 3.5925 7.21944 3.45426 7.27148 3.32864C7.32351 3.20302 7.41163 3.09564 7.52469 3.0201C7.63775 2.94456 7.77067 2.90424 7.90665 2.90424C8.08898 2.90424 8.26385 2.97667 8.39278 3.1056C8.52171 3.23453 8.59415 3.4094 8.59415 3.59174Z" fill="#2D3748"/>
</svg>
