<svg width="35" height="5" viewBox="0 0 35 5" fill="none" xmlns="http://www.w3.org/2000/svg">
<path fill-rule="evenodd" clip-rule="evenodd" d="M1.74985 4.49762C2.71635 4.49762 3.49985 3.71412 3.49985 2.74762C3.49985 1.78112 2.71635 0.99762 1.74985 0.99762C0.783349 0.99762 -0.000152588 1.78112 -0.000152588 2.74762C-0.000152588 3.71412 0.783349 4.49762 1.74985 4.49762ZM6.24988 4.49762C7.21638 4.49762 7.99988 3.71412 7.99988 2.74762C7.99988 1.78112 7.21638 0.997622 6.24988 0.997622C5.28338 0.997622 4.49988 1.78112 4.49988 2.74762C4.49988 3.71412 5.28338 4.49762 6.24988 4.49762ZM12.4997 2.74762C12.4997 3.71412 11.7162 4.49762 10.7497 4.49762C9.78319 4.49762 8.99969 3.71412 8.99969 2.74762C8.99969 1.78112 9.78319 0.997622 10.7497 0.997622C11.7162 0.997622 12.4997 1.78112 12.4997 2.74762ZM15.25 4.49762C16.2165 4.49762 17 3.71412 17 2.74762C17 1.78112 16.2165 0.997622 15.25 0.997622C14.2835 0.997622 13.5 1.78112 13.5 2.74762C13.5 3.71412 14.2835 4.49762 15.25 4.49762ZM21.4998 2.74762C21.4998 3.71412 20.7163 4.49762 19.7498 4.49762C18.7833 4.49762 17.9998 3.71412 17.9998 2.74762C17.9998 1.78112 18.7833 0.997622 19.7498 0.997622C20.7163 0.997622 21.4998 1.78112 21.4998 2.74762ZM24.2501 4.49762C25.2166 4.49762 26.0001 3.71412 26.0001 2.74762C26.0001 1.78112 25.2166 0.997622 24.2501 0.997622C23.2836 0.997622 22.5001 1.78112 22.5001 2.74762C22.5001 3.71412 23.2836 4.49762 24.2501 4.49762ZM30.4999 2.74762C30.4999 3.71412 29.7164 4.49762 28.7499 4.49762C27.7834 4.49762 26.9999 3.71412 26.9999 2.74762C26.9999 1.78112 27.7834 0.997622 28.7499 0.997622C29.7164 0.997622 30.4999 1.78112 30.4999 2.74762ZM33.2497 4.49762C34.2162 4.49762 34.9997 3.71412 34.9997 2.74762C34.9997 1.78112 34.2162 0.997622 33.2497 0.997622C32.2832 0.997622 31.4997 1.78112 31.4997 2.74762C31.4997 3.71412 32.2832 4.49762 33.2497 4.49762Z" fill="black"/>
</svg>
