<svg width="12" height="12" viewBox="0 0 12 12" fill="none" xmlns="http://www.w3.org/2000/svg">
<g clip-path="url(#clip0_5_875)">
<path d="M7.64632 2.13496C7.22823 1.68357 6.64428 1.435 5.99975 1.435C5.35178 1.435 4.76591 1.68207 4.34975 2.13066C3.92909 2.5842 3.72413 3.20058 3.77225 3.86617C3.86764 5.17929 4.86688 6.2475 5.99975 6.2475C7.13262 6.2475 8.13014 5.17951 8.22704 3.8666C8.27581 3.20703 8.06956 2.59193 7.64632 2.13496Z" fill="white"/>
<path d="M9.78102 11.0595H2.21852C2.11954 11.0608 2.02151 11.04 1.93157 10.9986C1.84163 10.9573 1.76204 10.8964 1.6986 10.8204C1.55895 10.6535 1.50266 10.4255 1.54434 10.195C1.72567 9.18908 2.29157 8.3441 3.18102 7.75092C3.97122 7.22433 4.97217 6.93451 5.99977 6.93451C7.02737 6.93451 8.02832 7.22455 8.81852 7.75092C9.70797 8.34388 10.2739 9.18886 10.4552 10.1948C10.4969 10.4253 10.4406 10.6532 10.3009 10.8202C10.2375 10.8962 10.1579 10.9571 10.068 10.9985C9.97806 11.0399 9.88002 11.0608 9.78102 11.0595V11.0595Z" fill="white"/>
</g>
<defs>
<clipPath id="clip0_5_875">
<rect width="11" height="11" fill="white" transform="translate(0.499802 0.74765)"/>
</clipPath>
</defs>
</svg>
