<svg width="12" height="12" viewBox="0 0 12 12" fill="none" xmlns="http://www.w3.org/2000/svg">
<path d="M5.18559 4.33953C5.18559 4.61883 5.18559 4.88953 5.27368 5.14304C4.3477 6.23015 1.90278 9.10261 1.67504 9.32175C1.62978 9.36236 1.59357 9.41205 1.56877 9.46757C1.54397 9.52309 1.53114 9.58321 1.5311 9.64402C1.5311 9.82664 1.64282 10.0028 1.73735 10.1016C1.87914 10.2499 2.485 10.8106 2.59672 10.7032C2.92758 10.3809 2.99418 10.295 3.12953 10.1618C3.33364 9.96199 3.10805 9.55379 3.17895 9.38836C3.24985 9.22293 3.32504 9.1907 3.4475 9.16492C3.56996 9.13914 3.78696 9.22722 3.95668 9.22937C4.135 9.23152 4.23168 9.15632 4.36489 9.03172C4.47231 8.93289 4.54965 8.8405 4.5518 8.69656C4.5561 8.5032 4.2768 8.24754 4.4852 8.04343C4.6936 7.83933 4.99438 8.17664 5.21567 8.15086C5.43696 8.12507 5.70551 7.81785 5.73344 7.68679C5.76137 7.55574 5.48207 7.21843 5.52504 7.02722C5.54008 6.96277 5.67114 6.81238 5.76996 6.79089C5.86879 6.76941 6.30707 6.93914 6.4059 6.91765C6.52621 6.89187 6.66586 6.76511 6.77973 6.69422C7.11274 6.83816 7.41567 6.89617 7.80453 6.89617C9.27621 6.89617 10.4686 5.7489 10.4686 4.33523C10.4686 2.92156 9.27621 1.77924 7.80453 1.77924C6.33285 1.77924 5.18559 2.92586 5.18559 4.33953ZM9.0936 3.84174C9.0936 3.97771 9.05328 4.11063 8.97773 4.22369C8.90219 4.33675 8.79482 4.42487 8.66919 4.4769C8.54357 4.52894 8.40533 4.54255 8.27197 4.51603C8.13861 4.4895 8.01611 4.42402 7.91996 4.32787C7.82381 4.23172 7.75833 4.10922 7.73181 3.97586C7.70528 3.8425 7.71889 3.70426 7.77093 3.57864C7.82296 3.45302 7.91108 3.34564 8.02414 3.2701C8.1372 3.19456 8.27012 3.15424 8.4061 3.15424C8.58843 3.15424 8.7633 3.22667 8.89223 3.3556C9.02116 3.48453 9.0936 3.6594 9.0936 3.84174Z" fill="white"/>
</svg>
