<svg width="11" height="12" viewBox="0 0 11 12" fill="none" xmlns="http://www.w3.org/2000/svg">
<path d="M5.49966 1.77838C3.03562 1.77838 1.03091 3.78309 1.03091 6.24713C1.03091 8.71117 3.03562 10.7159 5.49966 10.7159C7.9637 10.7159 9.96841 8.71117 9.96841 6.24713C9.96841 3.78309 7.9637 1.77838 5.49966 1.77838ZM4.42071 4.28819C4.69292 3.99965 5.07599 3.84088 5.49966 3.84088C5.92333 3.84088 6.30296 4.00072 6.57624 4.29076C6.85318 4.58467 6.98788 4.97955 6.95609 5.40408C6.89249 6.24713 6.23937 6.93463 5.49966 6.93463C4.75995 6.93463 4.10554 6.24713 4.04323 5.40387C4.01165 4.9759 4.14614 4.57973 4.42071 4.28819ZM5.49966 10.0284C4.99488 10.0287 4.49517 9.92768 4.03016 9.73127C3.56516 9.53486 3.14433 9.24708 2.79263 8.88498C2.99406 8.59773 3.25071 8.35349 3.54759 8.16654C4.09523 7.81549 4.78831 7.62213 5.49966 7.62213C6.21101 7.62213 6.90409 7.81549 7.45109 8.16654C7.74821 8.35341 8.00509 8.59765 8.20669 8.88498C7.85502 9.24712 7.4342 9.53493 6.96919 9.73134C6.50417 9.92775 6.00445 10.0288 5.49966 10.0284V10.0284Z" fill="white"/>
</svg>
